<svg width="196" height="50" fill="none" xmlns="http://www.w3.org/2000/svg"><path d="m153.946 31.654 6.377-16.027L166.7 31.61h6.779L160.323 0l-20.826 49.952h7.09l4.103-10.284.758-1.87h8.875v-6.144h-6.377ZM196 1.202h-6.422v30.452H196V1.202ZM9.41 8.77H2.096a6.79 6.79 0 0 0-.312 1.603v.09c-.045.266-.045.534-.045.845v.223c0 .311 0 .623.045.935 0 .089 0 .178.044.267.045.222.045.445.09.668 0 .133.044.267.089.356.044.222.134.445.178.668a.868.868 0 0 1 .045.311c.624 2.093 1.873 4.007 3.657 5.699l6.199 5.832c.223.223 3.88 3.829 6.154 5.921 2.274 2.182 3.122 4.319 2.497 6.411-.089.267-.178.535-.312.757-.09.178-.178.312-.268.49-1.025 1.692-2.988 3.027-5.217 3.428a8.083 8.083 0 0 1-1.784.178 8.767 8.767 0 0 1-3.211-.623c-1.74-.624-3.39-1.87-4.816-3.606L0 43.229c2.14 2.627 4.638 4.453 7.581 5.654 1.74.668 3.657 1.024 5.709 1.024 1.07 0 2.051-.088 2.898-.267 5.174-1.024 9.41-4.674 10.748-9.304.045-.09.045-.223.09-.312 0-.045 0-.09.044-.134l.134-.534c0-.089.044-.178.044-.267.045-.178.045-.356.09-.534 0-.09.044-.223.044-.312 0-.178.045-.312.045-.445v-.802c0-.178 0-.4-.045-.578v-.223a14.893 14.893 0 0 0-.49-2.449c-.714-2.27-2.141-4.363-4.193-6.232-1.07-1.024-2.586-2.449-3.79-3.651l-8.473-8.058c-2.32-2.226-2.409-4.096-2.097-5.254.179-.667.58-1.246 1.07-1.78ZM47.94 8.77H41.52v41.182h6.422V8.771ZM89.995 40.603c.624-2.137.58-4.452-.134-6.634-.713-2.27-2.14-4.407-4.236-6.277-1.07-1.024-2.587-2.449-3.836-3.695l-8.428-8.103c-2.32-2.27-2.453-4.096-2.096-5.254.49-1.647 2.185-3.027 4.236-3.428a6.379 6.379 0 0 1 1.294-.133c1.427 0 3.567.49 5.619 2.716l5.084-4.052c-1.784-1.959-3.836-3.428-6.11-4.318a13.17 13.17 0 0 0-4.504-.802c-.892 0-1.784.09-2.631.267-2.096.401-4.103 1.336-5.709 2.716-1.783 1.514-2.943 3.295-3.523 5.298-.58 1.87-.49 3.962.134 5.966.669 2.092 1.918 4.007 3.702 5.743l6.198 5.877c.223.222 3.925 3.873 6.2 5.966 2.274 2.181 3.121 4.318 2.497 6.455-.313 1.069-1.026 2.048-1.963 2.85h7.805c.134-.446.267-.802.401-1.158ZM129.329 40.603c.624-2.137.58-4.452-.134-6.634-.713-2.27-2.14-4.407-4.236-6.277a140.24 140.24 0 0 1-3.836-3.695l-8.428-8.103c-2.319-2.27-2.453-4.096-2.096-5.254.49-1.647 2.185-3.027 4.236-3.428a6.385 6.385 0 0 1 1.294-.133c1.427 0 3.567.49 5.619 2.716l5.084-4.052c-1.784-1.959-3.836-3.428-6.11-4.318a13.112 13.112 0 0 0-4.46-.802c-.892 0-1.784.09-2.631.267a12.58 12.58 0 0 0-5.708 2.716c-1.784 1.514-2.944 3.295-3.523 5.298-.58 1.87-.491 3.962.134 5.966.668 2.092 1.873 4.007 3.701 5.743l6.199 5.877c.223.222 3.924 3.873 6.199 5.966 2.274 2.181 3.121 4.318 2.497 6.455-.312 1.069-1.026 2.048-1.962 2.85h7.804c.089-.446.223-.802.357-1.158Z" fill="#fff"/></svg>