<svg width="24" height="38" fill="none" xmlns="http://www.w3.org/2000/svg"><path d="M6.248 12.4h-4.34c-.08.33-.16.659-.187.988v.055c-.027.165-.027.33-.027.494v.137c0 .192 0 .384.027.576 0 .055 0 .11.027.137.027.137.027.275.054.412 0 .082.026.164.053.22.027.136.08.274.107.41 0 .056.027.083.027.138.375 1.262 1.125 2.442 2.17 3.484l3.669 3.54c.134.137 2.304 2.332 3.643 3.621 1.339 1.317 1.848 2.634 1.473 3.896-.054.165-.107.33-.188.466-.053.11-.107.192-.16.302-.616 1.043-1.768 1.838-3.107 2.085-.349.083-.697.11-1.072.11-.67 0-1.312-.137-1.901-.384-1.045-.384-2.01-1.152-2.866-2.195L.623 33.306c1.286 1.592 2.759 2.717 4.5 3.43a9.131 9.131 0 0 0 3.375.63c.642 0 1.205-.054 1.74-.164 3.08-.63 5.599-2.853 6.402-5.679.027-.055.027-.137.054-.192 0-.027 0-.055.026-.082l.08-.33c0-.054.028-.11.028-.164.026-.11.026-.22.053-.33 0-.054.027-.137.027-.191 0-.083.027-.193.027-.275V29.492c0-.109 0-.246-.027-.356V29a9.997 9.997 0 0 0-.295-1.509c-.428-1.372-1.259-2.661-2.49-3.814-.643-.63-1.527-1.481-2.25-2.222l-4.982-4.91c-1.393-1.373-1.447-2.498-1.232-3.183.08-.275.294-.631.589-.96ZM22.747 24.418c.375-1.29.348-2.716-.08-4.06-.43-1.4-1.26-2.69-2.519-3.842-.642-.63-1.553-1.509-2.276-2.25l-5.009-4.938c-1.393-1.372-1.446-2.497-1.259-3.21.295-1.015 1.286-1.838 2.518-2.085.241-.055.509-.082.777-.082.857 0 2.116.302 3.321 1.646l3.027-2.47C20.202 1.922 18.97 1.044 17.63.495A7.585 7.585 0 0 0 14.952 0c-.535 0-1.044.055-1.553.165-1.259.22-2.41.795-3.402 1.646-1.044.905-1.768 2.003-2.089 3.237-.321 1.125-.295 2.415.08 3.65.375 1.261 1.125 2.44 2.197 3.51l3.696 3.567c.134.138 2.33 2.36 3.67 3.65 1.365 1.316 1.848 2.633 1.5 3.923-.188.658-.617 1.262-1.152 1.756h4.633c.054-.22.134-.44.215-.686Z" fill="#fff"/></svg>